<svg width="320" height="60" viewBox="0 0 320 60" fill="none" xmlns="http://www.w3.org/2000/svg">
<g clip-path="url(#clip0_920_747)">
<path d="M66.5864 26.3125C66.6448 23.011 67.0094 19.6451 67.6803 16.2292C68.3512 12.8061 69.2555 9.05431 70.3858 4.9595L77.7658 26.8414L84.2561 5.00238L90.2505 26.3125H95.2604L87.5741 0H82.6517L83.1914 2.10815L79.0274 16.3578L73.4341 0H68.5117L69.2701 2.101L63.0059 26.3054H66.5864V26.3125Z" fill="white"/>
<path d="M101.94 26.0696C102.983 26.5555 104.092 26.7913 105.251 26.7913C106.411 26.7913 107.519 26.5484 108.562 26.0696C109.605 25.5908 110.509 24.9262 111.267 24.0757C112.026 23.2253 112.631 22.2463 113.083 21.1386C113.528 20.031 113.754 18.8304 113.754 17.5441C113.754 16.2577 113.528 15.0929 113.083 13.9709C112.638 12.8418 112.033 11.8628 111.267 11.0124C110.509 10.162 109.605 9.49738 108.562 9.01858C107.519 8.53978 106.411 8.29681 105.251 8.29681C104.092 8.29681 102.983 8.53978 101.94 9.01858C100.897 9.49738 99.9932 10.1691 99.2348 11.0124C98.4764 11.8628 97.8711 12.849 97.419 13.9709C96.9741 15.1 96.748 16.2863 96.748 17.5441C96.748 18.8018 96.9741 20.031 97.419 21.1386C97.8638 22.2535 98.4691 23.2253 99.2348 24.0757C99.9932 24.9262 100.897 25.5908 101.94 26.0696ZM100.839 11.4483C101.481 10.455 102.4 9.95474 103.588 9.95474C104.485 9.95474 105.353 10.2549 106.206 10.8552C107.06 11.4555 107.811 12.2273 108.467 13.1777C109.123 14.1282 109.648 15.1929 110.035 16.3792C110.421 17.5655 110.618 18.7375 110.618 19.9095C110.618 21.403 110.297 22.6465 109.656 23.6398C109.014 24.6332 108.095 25.1334 106.906 25.1334C106.009 25.1334 105.142 24.8404 104.288 24.2544C103.435 23.6684 102.691 22.9109 102.05 21.9747C101.408 21.0386 100.883 19.9738 100.482 18.7732C100.081 17.5727 99.8765 16.3792 99.8765 15.1787C99.8765 13.6851 100.197 12.4488 100.839 11.4483Z" fill="white"/>
<path d="M124.49 26.7913C125.861 26.7913 127.028 26.5126 127.983 25.9552C128.939 25.3978 129.865 24.5045 130.754 23.2825L130.259 22.5393C129.719 23.2682 129.106 23.8828 128.421 24.383C127.735 24.8761 127.006 25.1263 126.226 25.1263C125.3 25.1263 124.41 24.8475 123.564 24.2901C122.718 23.7327 121.96 22.9824 121.303 22.0319C120.647 21.0815 120.115 19.9952 119.714 18.7661C119.313 17.5369 119.108 16.2506 119.108 14.9071C119.108 13.5636 119.444 12.3273 120.115 11.3768C120.786 10.4264 121.69 9.95474 122.82 9.95474C123.593 9.95474 124.337 10.1977 125.037 10.6765C125.737 11.1553 126.401 11.8199 127.028 12.6703L129.981 11.0052C129.296 10.2763 128.538 9.64031 127.721 9.09719C126.897 8.55407 125.817 8.28252 124.476 8.28252C123.309 8.28252 122.208 8.52549 121.165 9.00429C120.122 9.48309 119.218 10.1548 118.459 10.9981C117.701 11.8485 117.096 12.8347 116.644 13.9566C116.199 15.0858 115.973 16.272 115.973 17.5298C115.973 18.7875 116.199 20.0167 116.644 21.1243C117.088 22.2392 117.694 23.2111 118.459 24.0615C119.218 24.9119 120.122 25.5765 121.165 26.0553C122.208 26.5412 123.316 26.777 124.476 26.777L124.49 26.7913Z" fill="white"/>
<path d="M143.866 18.4159C143.451 17.7156 142.904 17.1725 142.233 16.7937C141.562 16.415 140.869 16.222 140.154 16.222H139.615L141.854 12.1415C142.123 11.6484 142.583 11.3983 143.239 11.3983H145.296V8.76846H144.129C143.531 8.76846 143.028 8.91139 142.605 9.20438C142.189 9.49738 141.846 9.89043 141.576 10.3907L138.222 16.222H136.479V8.76846H132.898V26.3125H136.479V17.5441H137.952C138.463 17.5441 138.944 17.7156 139.403 18.0515C139.863 18.3873 140.184 18.7303 140.366 19.0805L144.122 26.3125H148.286L143.859 18.4159H143.866Z" fill="white"/>
<path d="M151.991 24.0757C152.749 24.9262 153.653 25.5908 154.696 26.0696C155.739 26.5555 156.847 26.7913 158.007 26.7913C159.166 26.7913 160.275 26.5484 161.318 26.0696C162.361 25.5908 163.265 24.9262 164.023 24.0757C164.782 23.2253 165.387 22.2463 165.832 21.1386C166.277 20.031 166.503 18.8304 166.503 17.5441C166.503 16.2577 166.277 15.0929 165.832 13.9709C165.387 12.8418 164.782 11.8628 164.023 11.0124C163.265 10.162 162.361 9.49738 161.318 9.01858C160.275 8.53978 159.166 8.29681 158.007 8.29681C156.847 8.29681 155.739 8.53978 154.696 9.01858C153.653 9.49738 152.749 10.1691 151.991 11.0124C151.232 11.8628 150.627 12.849 150.175 13.9709C149.73 15.1 149.504 16.2863 149.504 17.5441C149.504 18.8018 149.73 20.031 150.175 21.1386C150.62 22.2535 151.225 23.2325 151.991 24.0757ZM153.602 11.4483C154.244 10.455 155.163 9.95474 156.352 9.95474C157.248 9.95474 158.116 10.2549 158.97 10.8552C159.823 11.4555 160.574 12.2273 161.23 13.1777C161.886 14.1282 162.404 15.1929 162.798 16.3792C163.185 17.5655 163.381 18.7375 163.381 19.9095C163.381 21.403 163.061 22.6465 162.419 23.6398C161.777 24.6332 160.858 25.1334 159.67 25.1334C158.773 25.1334 157.905 24.8404 157.052 24.2544C156.198 23.6684 155.455 22.9109 154.813 21.9747C154.171 21.0386 153.646 19.9738 153.245 18.7732C152.844 17.5727 152.64 16.3792 152.64 15.1787C152.64 13.6851 152.961 12.4488 153.602 11.4483Z" fill="white"/>
<path d="M177.163 26.3125C178.089 26.3125 178.971 26.1982 179.803 25.9624C180.641 25.7265 181.363 25.405 181.976 24.9976C182.588 24.5903 183.07 24.09 183.427 23.504C183.784 22.9181 183.967 22.2892 183.967 21.6174C183.967 20.2168 183.478 19.0233 182.494 18.0443C181.509 17.0653 180.24 16.2434 178.694 15.5646L179.861 14.8213C180.517 14.414 181.108 13.9352 181.626 13.3921C182.151 12.849 182.406 12.2487 182.406 11.5698C182.406 10.6622 181.837 9.96189 180.707 9.46879C180.197 9.23297 179.569 9.06146 178.826 8.93997C178.082 8.82563 177.185 8.76131 176.142 8.76131H168.981V10.0762H169.878V26.2982H177.17L177.163 26.3125ZM173.444 10.0834H174.785C176.04 10.0834 177.097 10.2692 177.965 10.6336C178.833 10.9981 179.263 11.5626 179.263 12.3202C179.263 12.8776 178.949 13.4993 178.322 14.1853C177.695 14.8714 176.813 15.4645 175.682 15.9647V16.4435C177.476 17.3511 178.702 18.3159 179.372 19.3378C180.043 20.3597 180.379 21.4745 180.379 22.6751C180.379 23.404 180.116 23.9757 179.599 24.383C179.073 24.7904 178.366 24.9976 177.476 24.9976H173.451V10.0834H173.444Z" fill="white"/>
<path d="M197.881 25.9624C198.836 25.405 199.762 24.5117 200.652 23.2897L200.163 22.5464C199.624 23.2754 199.011 23.8899 198.325 24.3902C197.64 24.8833 196.911 25.1334 196.13 25.1334C195.204 25.1334 194.322 24.8547 193.469 24.2973C192.615 23.7399 191.864 22.9895 191.208 22.0391C190.552 21.0886 190.019 20.0024 189.618 18.7732C189.217 17.5441 189.013 16.2577 189.013 14.9142C189.013 13.5707 189.348 12.3344 190.019 11.384C190.69 10.4335 191.595 9.96189 192.725 9.96189C193.498 9.96189 194.242 10.2049 194.942 10.6837C195.642 11.1625 196.305 11.8271 196.933 12.6775L199.886 11.0124C199.201 10.2835 198.442 9.64745 197.625 9.10433C196.801 8.56122 195.722 8.28966 194.38 8.28966C193.213 8.28966 192.112 8.53263 191.069 9.01143C190.027 9.49023 189.122 10.162 188.364 11.0052C187.606 11.8556 187 12.8418 186.555 13.9638C186.111 15.0929 185.885 16.2792 185.885 17.5369C185.885 18.7947 186.111 20.0238 186.555 21.1315C187 22.2463 187.606 23.2182 188.364 24.0686C189.122 24.919 190.027 25.5836 191.069 26.0624C192.112 26.5484 193.221 26.7842 194.38 26.7842C195.751 26.7842 196.918 26.5055 197.873 25.9481L197.881 25.9624Z" fill="white"/>
<path d="M210.277 19.0734L214.033 26.3054H218.197L213.763 18.4088C213.348 17.7084 212.801 17.1653 212.13 16.7866C211.459 16.4078 210.766 16.2149 210.051 16.2149H209.519L211.758 12.1343C212.028 11.6413 212.487 11.3911 213.143 11.3911H215.2V8.76131H214.033C213.435 8.76131 212.932 8.90424 212.509 9.19724C212.093 9.49023 211.751 9.88328 211.481 10.3835L208.126 16.2149H206.383V8.76131H202.803V26.3054H206.383V17.5369H207.856C208.36 17.5369 208.848 17.7084 209.308 18.0443C209.774 18.3802 210.095 18.7232 210.27 19.0734H210.277Z" fill="white"/>
<path d="M224.104 18.859L232.155 13.8137V26.3125H235.736V8.76846H232.155V12.2773L224.104 17.3225V8.76846H220.523V26.3125H224.104V18.859Z" fill="white"/>
<path d="M244.867 4.66651C245.224 4.93807 245.632 5.16675 246.099 5.36684C246.559 5.55979 247.091 5.65984 247.689 5.65984C249.031 5.65984 250.219 5.31682 251.248 4.63078C252.276 3.94474 253.195 3.11577 253.997 2.15103L253.282 1.84374C252.385 2.60124 251.663 3.13721 251.109 3.4445C250.555 3.75179 249.935 3.90901 249.249 3.90901C247.995 3.90901 246.982 3.1515 246.209 1.62935L243.299 3.03002C243.474 3.26584 243.693 3.53025 243.948 3.82325C244.203 4.11625 244.509 4.4021 244.867 4.67366V4.66651Z" fill="white"/>
<path d="M243.786 18.859L251.844 13.8137V26.3125H255.425V8.76846H251.844V12.2773L243.786 17.3225V8.76846H240.213V26.3125H243.786V18.859Z" fill="white"/>
<path d="M24.6047 51.2244C24.6995 50.6598 24.7797 50.081 24.8381 49.4736H23.0514L13.7463 24.9119H8.95513L9.7573 27.1486C9.31246 29.1639 8.85303 31.0791 8.39361 32.8942C7.92689 34.7094 7.40913 36.5031 6.82573 38.2897C6.24234 40.0691 5.57872 41.8699 4.83489 43.6851C4.09106 45.5002 3.22326 47.4297 2.23878 49.4736H0L0.896971 53.4183C1.19596 52.9824 1.49495 52.6179 1.79394 52.3178C2.09293 52.0248 2.45756 51.7961 2.88781 51.6389C3.31806 51.4745 3.84312 51.3673 4.45569 51.3102C5.06825 51.253 5.81938 51.2244 6.71635 51.2244H24.612H24.6047ZM4.2515 49.4736C5.05367 47.6298 5.79021 45.9076 6.44653 44.2997C7.10285 42.6918 7.70083 41.1339 8.23318 39.6332C8.77282 38.1253 9.25412 36.6174 9.68437 35.0953C10.1146 33.5731 10.5303 31.9652 10.9168 30.2716L18.1217 49.4807H4.2515V49.4736Z" fill="white"/>
<path d="M29.1772 34.9166L29.4907 35.8814L32.4004 35.4454L33.3849 38.0753C32.8453 38.8328 32.1525 39.5617 31.3066 40.2477C30.4606 40.9338 29.6293 41.6341 28.8198 42.3559C28.0177 43.0705 27.3249 43.8137 26.7634 44.5927C26.1946 45.3645 25.9102 46.2363 25.9102 47.2011C25.9102 48.7232 26.3769 49.8523 27.3176 50.5955C28.2583 51.3387 29.3814 51.7175 30.694 51.7175C32.0066 51.7175 33.0786 51.496 34.0923 51.06C35.1059 50.617 36.1925 50.0238 37.3593 49.2592L38.0302 51.2315H41.9244L35.5289 33.2087L29.1772 34.9166ZM34.683 49.302C34.0267 49.4807 33.2828 49.5665 32.4442 49.5665C31.4889 49.5665 30.6648 49.2878 29.9793 48.7304C29.2939 48.1729 28.9511 47.3869 28.9511 46.3649C28.9511 45.5145 29.1115 44.7999 29.4251 44.2139C29.7387 43.6279 30.1325 43.0848 30.6138 42.5703C31.0878 42.0557 31.6201 41.5626 32.2035 41.0767C32.7869 40.5979 33.3412 40.0333 33.8808 39.3902L36.9655 48.2015C36.0977 48.7589 35.3393 49.1234 34.683 49.302Z" fill="white"/>
<path d="M55.9845 41.141H47.9263V33.6875H44.3457V51.2244H47.9263V42.4559H55.9845V51.2244H59.565V33.6875H55.9845V41.141Z" fill="white"/>
<path d="M75.6664 37.1963L67.6155 42.2344V33.6875H64.0349V51.2244H67.6155V43.7708L75.6664 38.7256V51.2244H79.247V33.6875H75.6664V37.1963Z" fill="white"/>
<path d="M87.3051 33.6875L87.801 35.0024L81.8066 51.2315H84.4903C84.6069 50.181 84.782 49.1162 85.008 48.0515C85.2341 46.9867 85.5039 45.8647 85.8102 44.6999C86.1165 43.535 86.503 42.3059 86.9551 41.0195C87.3999 39.7332 87.925 38.3325 88.523 36.8104L94.1163 51.2387H98.1417L91.2066 33.6946H87.3124L87.3051 33.6875Z" fill="white"/>
<path d="M114.265 35.9243C113.507 35.0738 112.603 34.4092 111.56 33.9304C110.517 33.4516 109.409 33.2087 108.249 33.2087C107.09 33.2087 105.981 33.4516 104.938 33.9304C103.895 34.4164 102.991 35.081 102.233 35.9243C101.474 36.7747 100.869 37.7608 100.417 38.8828C99.9722 40.0119 99.7461 41.2053 99.7461 42.4559C99.7461 43.7065 99.9722 44.9428 100.417 46.0505C100.862 47.1653 101.467 48.1372 102.233 48.9876C102.991 49.838 103.895 50.5026 104.938 50.9814C105.981 51.4674 107.09 51.7032 108.249 51.7032C109.409 51.7032 110.517 51.4602 111.56 50.9814C112.603 50.5026 113.507 49.838 114.265 48.9876C115.024 48.1372 115.629 47.1582 116.081 46.0505C116.526 44.9428 116.752 43.7423 116.752 42.4559C116.752 41.1696 116.526 40.0119 116.081 38.8828C115.636 37.7608 115.031 36.7747 114.265 35.9243ZM112.654 48.5517C112.012 49.545 111.093 50.0453 109.904 50.0453C109.008 50.0453 108.14 49.7523 107.286 49.1663C106.441 48.5803 105.689 47.8228 105.048 46.8866C104.406 45.9505 103.881 44.8857 103.48 43.6851C103.079 42.4845 102.875 41.2911 102.875 40.0905C102.875 38.597 103.195 37.3606 103.837 36.3602C104.479 35.3668 105.398 34.8666 106.586 34.8666C107.483 34.8666 108.351 35.1667 109.204 35.767C110.058 36.3673 110.809 37.1391 111.465 38.0896C112.121 39.04 112.646 40.1048 113.033 41.2911C113.419 42.4774 113.616 43.6565 113.616 44.8213C113.616 46.3078 113.295 47.5512 112.654 48.5445V48.5517Z" fill="white"/>
<path d="M128.924 40.4836L130.091 39.7404C130.748 39.333 131.338 38.8542 131.856 38.3111C132.374 37.768 132.636 37.1677 132.636 36.4959C132.636 35.5884 132.068 34.888 130.937 34.395C130.427 34.1591 129.8 33.9876 129.056 33.8661C128.312 33.7518 127.415 33.6875 126.372 33.6875H119.211V35.0024H120.108V51.2315H127.4C128.326 51.2315 129.202 51.1172 130.04 50.8814C130.879 50.6455 131.601 50.324 132.213 49.9166C132.826 49.5093 133.307 49.009 133.665 48.4302C134.022 47.8442 134.204 47.2153 134.204 46.5436C134.204 45.1429 133.708 43.9495 132.731 42.9705C131.747 41.9914 130.478 41.1625 128.924 40.4907V40.4836ZM129.843 49.302C129.318 49.7094 128.611 49.9166 127.714 49.9166H123.689V35.0095H125.03C126.285 35.0095 127.342 35.1953 128.21 35.5598C129.078 35.9242 129.508 36.4888 129.508 37.2463C129.508 37.8037 129.194 38.4254 128.567 39.1115C127.94 39.7975 127.058 40.3907 125.927 40.8909V41.3697C127.721 42.2773 128.946 43.242 129.617 44.2639C130.288 45.2858 130.624 46.4007 130.624 47.5941C130.624 48.3302 130.361 48.8947 129.843 49.302Z" fill="white"/>
<path d="M160.602 33.6875L161.047 35.2668L157.962 43.728L154.338 33.6875H150.531L151.027 35.2668C150.487 36.8461 150.006 38.2968 149.576 39.6332C149.146 40.9624 148.73 42.2487 148.343 43.4921C147.957 44.7356 147.57 45.9862 147.177 47.2439C146.79 48.5017 146.396 49.8309 146.01 51.2315H148.693C148.723 49.9738 148.81 48.7804 148.963 47.6584C149.109 46.5364 149.313 45.4073 149.568 44.2854C149.824 43.1634 150.123 41.9986 150.465 40.798C150.808 39.5974 151.202 38.3182 151.654 36.939L156.846 51.546L161.681 36.939L165.801 51.2387H169.652L164.416 33.6946H160.609L160.602 33.6875Z" fill="white"/>
<path d="M185.731 35.9243C184.972 35.0738 184.068 34.4092 183.025 33.9304C181.982 33.4516 180.881 33.2087 179.714 33.2087C178.548 33.2087 177.447 33.4516 176.404 33.9304C175.354 34.4164 174.457 35.081 173.698 35.9243C172.94 36.7747 172.335 37.7608 171.89 38.8828C171.445 40.0119 171.219 41.2053 171.219 42.4559C171.219 43.7065 171.445 44.9428 171.89 46.0505C172.335 47.1653 172.94 48.1372 173.698 48.9876C174.457 49.838 175.361 50.5026 176.404 50.9814C177.447 51.4674 178.548 51.7032 179.714 51.7032C180.881 51.7032 181.982 51.4602 183.025 50.9814C184.068 50.5026 184.972 49.838 185.731 48.9876C186.489 48.1372 187.094 47.1582 187.539 46.0505C187.984 44.9428 188.21 43.7423 188.21 42.4559C188.21 41.1696 187.984 40.0119 187.539 38.8828C187.094 37.7608 186.489 36.7747 185.723 35.9243H185.731ZM184.119 48.5517C183.477 49.545 182.559 50.0453 181.37 50.0453C180.473 50.0453 179.605 49.7523 178.752 49.1663C177.899 48.5803 177.155 47.8228 176.513 46.8866C175.871 45.9505 175.354 44.8857 174.945 43.6851C174.544 42.4845 174.34 41.2911 174.34 40.0905C174.34 38.597 174.661 37.3606 175.303 36.3602C175.944 35.3668 176.856 34.8666 178.052 34.8666C178.949 34.8666 179.817 35.1667 180.67 35.767C181.523 36.3673 182.274 37.1391 182.93 38.0896C183.587 39.04 184.105 40.1048 184.498 41.2911C184.885 42.4774 185.082 43.6565 185.082 44.8213C185.082 46.3078 184.761 47.5512 184.119 48.5445V48.5517Z" fill="white"/>
<path d="M203.203 41.141H195.145V33.6875H191.564V51.2244H195.145V42.4559H203.203V51.2244H206.784V33.6875H203.203V41.141Z" fill="white"/>
<path d="M212.955 34.9166L213.268 35.8814L216.178 35.4454L217.162 38.0753C216.623 38.8328 215.93 39.5617 215.084 40.2477C214.238 40.9338 213.407 41.6341 212.597 42.3559C211.795 43.0705 211.102 43.8137 210.541 44.5927C209.972 45.3645 209.688 46.2363 209.688 47.2011C209.688 48.7232 210.154 49.8523 211.095 50.5955C212.036 51.3387 213.159 51.7175 214.479 51.7175C215.799 51.7175 216.863 51.496 217.877 51.06C218.891 50.617 219.984 50.0238 221.144 49.2592L221.815 51.2315H225.709L219.306 33.2087L212.955 34.9166ZM218.46 49.302C217.804 49.4807 217.06 49.5665 216.222 49.5665C215.266 49.5665 214.449 49.2878 213.757 48.7304C213.071 48.1729 212.728 47.3869 212.728 46.3649C212.728 45.5145 212.882 44.7999 213.195 44.2139C213.509 43.6279 213.903 43.0848 214.384 42.5703C214.858 42.0557 215.39 41.5626 215.974 41.0767C216.557 40.5979 217.118 40.0333 217.651 39.3902L220.736 48.2015C219.868 48.7589 219.109 49.1234 218.453 49.302H218.46Z" fill="white"/>
<path d="M239.447 49.2949C238.761 49.788 238.032 50.0381 237.252 50.0381C236.326 50.0381 235.436 49.7594 234.59 49.202C233.737 48.6517 232.986 47.8942 232.329 46.9438C231.673 45.9933 231.148 44.9071 230.74 43.6779C230.339 42.4488 230.134 41.1625 230.134 39.819C230.134 38.4755 230.47 37.2392 231.141 36.2887C231.812 35.3383 232.716 34.8666 233.846 34.8666C234.619 34.8666 235.363 35.1096 236.063 35.5884C236.763 36.0743 237.427 36.7318 238.054 37.5822L241.007 35.9171C240.322 35.1882 239.563 34.5522 238.747 34.0091C237.923 33.4659 236.843 33.2015 235.502 33.2015C234.335 33.2015 233.234 33.4445 232.191 33.9233C231.148 34.4092 230.244 35.0738 229.485 35.9171C228.727 36.7675 228.122 37.7537 227.677 38.8757C227.232 40.0048 227.006 41.1982 227.006 42.4488C227.006 43.6994 227.232 44.9357 227.677 46.0434C228.122 47.1582 228.727 48.1301 229.485 48.9805C230.244 49.8309 231.148 50.4955 232.191 50.9743C233.234 51.4602 234.342 51.696 235.502 51.696C236.873 51.696 238.039 51.4173 238.995 50.8599C239.95 50.3025 240.876 49.4092 241.766 48.1872L241.27 47.444C240.738 48.1729 240.125 48.7875 239.439 49.2878L239.447 49.2949Z" fill="white"/>
<path d="M243.035 37.1963C243.364 36.7604 243.677 36.3959 243.976 36.1029C244.275 35.8099 244.589 35.5884 244.917 35.424C245.245 35.2596 245.617 35.1525 246.033 35.0953C246.456 35.0381 246.944 35.0095 247.513 35.0095H248.855V51.2387H252.435V35.0095H253.777C254.339 35.0095 254.827 35.0381 255.228 35.0953C255.629 35.1525 256.001 35.2668 256.344 35.4454C256.687 35.6241 257.008 35.8456 257.307 36.1243C257.606 36.403 257.919 36.7604 258.247 37.1963L259.144 33.6875H242.138L243.035 37.1963Z" fill="white"/>
<path d="M269.165 39.6475L266.751 41.3554C267.911 41.9128 268.851 42.4345 269.566 42.9347C270.281 43.435 270.849 43.9281 271.265 44.4283C271.681 44.9285 271.965 45.4288 272.118 45.9433C272.271 46.4578 272.344 47.0009 272.344 47.5869C272.344 48.323 272.082 48.8876 271.564 49.2949C271.046 49.7022 270.332 49.9095 269.435 49.9095H265.409V33.6875H261.829V49.9095H260.932V51.2244H269.121C270.047 51.2244 270.93 51.1101 271.761 50.8742C272.6 50.6384 273.322 50.3168 273.934 49.9095C274.547 49.5021 275.028 49.0019 275.385 48.4231C275.743 47.8371 275.918 47.2082 275.918 46.5364C275.918 45.1358 275.349 43.8709 274.218 42.7418C273.081 41.6198 271.396 40.5836 269.165 39.6475Z" fill="white"/>
<path d="M281.518 33.6875H277.938V51.2315H281.518V33.6875Z" fill="white"/>
<path d="M300.062 35.9242C299.304 35.0738 298.399 34.4092 297.357 33.9304C296.314 33.4516 295.213 33.2087 294.046 33.2087C293.09 33.2087 292.142 33.373 291.202 33.6875C290.261 34.0091 289.415 34.5522 288.671 35.3097C287.927 36.0672 287.322 37.0748 286.863 38.3111C286.396 39.5546 286.17 41.0838 286.17 42.8919V59.9929H289.306C288.861 58.8209 288.496 57.263 288.212 55.3049C287.927 53.3468 287.789 51.1243 287.789 48.6374V47.4083C288.212 48.2301 288.708 48.909 289.291 49.445C289.874 49.9881 290.472 50.4169 291.1 50.7384C291.727 51.06 292.339 51.2887 292.937 51.4173C293.535 51.546 294.053 51.6174 294.505 51.6174C295.548 51.6174 296.554 51.3745 297.524 50.8957C298.494 50.4169 299.347 49.7666 300.098 48.9447C300.842 48.1229 301.44 47.1582 301.885 46.0505C302.33 44.9428 302.556 43.7423 302.556 42.4559C302.556 41.1696 302.33 40.0119 301.885 38.8828C301.44 37.7608 300.835 36.7747 300.069 35.9242H300.062ZM298.45 48.5517C297.809 49.545 296.89 50.0453 295.701 50.0453C294.804 50.0453 293.936 49.7523 293.083 49.1663C292.23 48.5803 291.486 47.8228 290.844 46.8866C290.203 45.9505 289.678 44.8857 289.276 43.6851C288.875 42.4845 288.671 41.2911 288.671 40.0905C288.671 38.5969 288.992 37.3606 289.634 36.3602C290.276 35.3668 291.194 34.8666 292.383 34.8666C293.28 34.8666 294.148 35.1667 295.001 35.767C295.854 36.3673 296.605 37.1391 297.262 38.0896C297.918 39.04 298.443 40.1048 298.83 41.2911C299.216 42.4774 299.413 43.6565 299.413 44.8213C299.413 46.3078 299.092 47.5512 298.45 48.5445V48.5517Z" fill="white"/>
<path d="M318.293 42.7418C317.155 41.6198 315.478 40.5836 313.239 39.6475L310.825 41.3554C311.992 41.9128 312.925 42.4345 313.64 42.9347C314.355 43.435 314.924 43.9281 315.339 44.4283C315.755 44.9214 316.039 45.4288 316.192 45.9433C316.338 46.4578 316.419 47.0009 316.419 47.5869C316.419 48.323 316.156 48.8876 315.631 49.2949C315.113 49.7022 314.399 49.9095 313.509 49.9095H309.483V33.6875H305.903V49.9095H305.006V51.2244H313.195C314.121 51.2244 315.004 51.1101 315.835 50.8742C316.674 50.6384 317.396 50.3168 318.008 49.9095C318.621 49.5021 319.109 49.0019 319.467 48.4231C319.824 47.8442 319.999 47.2082 319.999 46.5364C319.999 45.1358 319.43 43.8709 318.3 42.7418H318.293Z" fill="white"/>
<path d="M24.8372 49.4736L24.3632 53.4183C24.3632 53.4183 24.2101 51.2244 19.0762 51.2244" fill="white"/>
</g>
<defs>
<clipPath id="clip0_920_747">
<rect width="320" height="60" fill="white"/>
</clipPath>
</defs>
</svg>
