<svg width="91" height="209" viewBox="0 0 91 209" fill="none" xmlns="http://www.w3.org/2000/svg">
<g id="Group 12253">
<g id="Group 12250" opacity="0.5">
<path id="Vector" d="M83.863 6.58218L84.4175 7.1367C84.972 6.62326 85.6703 5.9592 86.2077 5.42522C87.2449 4.38806 89.1173 4.26483 90.0004 3.37828C90.8869 2.48831 90.7637 0.232576 90.7637 0.232576C90.7637 0.232576 88.508 0.109349 87.6214 0.995898C86.7349 1.88245 86.6116 3.75481 85.5745 4.78855C85.0405 5.32595 84.3799 6.02424 83.863 6.57876V6.58218ZM83.0723 4.57975C83.0483 4.56263 83.0209 4.54209 83.0004 4.52156C82.7813 4.30249 82.7813 3.9465 83.0004 3.724C83.2195 3.50493 83.5755 3.50493 83.798 3.724C83.887 3.81642 83.9417 3.93281 83.9554 4.05261C83.9554 4.05261 84.1266 4.68928 83.1442 5.85994L83.4625 6.17827C84.3422 5.27119 86.016 3.21741 84.7838 1.7558C84.7461 1.70788 84.705 1.65995 84.6571 1.61546C83.9725 0.930862 82.8601 0.930862 82.172 1.61546C81.4875 2.30005 81.4875 3.41251 82.172 4.10053C82.4253 4.35383 82.7403 4.51471 83.0689 4.57975H83.0723ZM89.3808 6.33915C89.3363 6.29465 89.2884 6.25358 89.2405 6.2125C87.7789 4.98366 85.7251 6.65407 84.818 7.53377L85.1363 7.85211C86.307 6.86971 86.9471 7.04086 86.9471 7.04086C87.0669 7.05798 87.1833 7.10932 87.2757 7.19832C87.4948 7.41739 87.4948 7.77338 87.2757 7.99245C87.0566 8.21152 86.7006 8.21152 86.4816 7.99245C86.4576 7.96849 86.4405 7.94453 86.4234 7.92056C86.4884 8.24917 86.6493 8.56066 86.9026 8.81738C87.5872 9.50198 88.6997 9.50198 89.3842 8.81738C90.0688 8.13279 90.0688 7.02032 89.3842 6.33231L89.3808 6.33915ZM81.8434 5.88732C81.6278 6.10297 81.6278 6.44869 81.8434 6.66433L84.3354 9.15968C84.551 9.37533 84.8967 9.37533 85.1124 9.15968C85.328 8.94403 85.328 8.59831 85.1124 8.38267L82.617 5.88732C82.4048 5.6751 82.0557 5.6751 81.8434 5.88732ZM82.0351 7.40712C81.306 7.93768 80.909 7.83157 80.909 7.83157C80.82 7.81788 80.731 7.78022 80.6625 7.71176C80.4982 7.54746 80.4982 7.27705 80.6625 7.11274C80.8302 6.94844 81.0972 6.94844 81.2615 7.11274C81.2787 7.12986 81.2923 7.14697 81.306 7.16751C81.2581 6.92106 81.1349 6.68145 80.9432 6.48976C80.4263 5.9729 79.5911 5.9729 79.0708 6.48976C78.554 7.00663 78.554 7.84526 79.0708 8.36213C79.1051 8.39636 79.1427 8.42716 79.177 8.45797C80.173 9.2966 81.5354 8.34501 82.2919 7.66384L82.0351 7.40712ZM84.5031 10.0531C84.3114 9.86139 84.0786 9.74158 83.8288 9.69024C83.8493 9.70393 83.8664 9.71762 83.8835 9.73474C84.0478 9.89904 84.0478 10.1695 83.8835 10.3338C83.7192 10.4981 83.4488 10.4981 83.2845 10.3338C83.2161 10.2653 83.1784 10.1763 83.1647 10.0873C83.1647 10.0873 83.0586 9.69366 83.5892 8.96115L83.3324 8.70442C82.6513 9.4609 81.7031 10.8232 82.5417 11.8193C82.5691 11.857 82.6033 11.8912 82.6341 11.9254C83.151 12.4423 83.9896 12.4423 84.5031 11.9254C85.0234 11.4086 85.02 10.5699 84.5031 10.0531ZM83.0483 8.42032L82.5794 7.94795C82.5041 8.01983 82.4219 8.09856 82.3398 8.18413C81.5593 8.96457 80.1491 9.05699 79.4816 9.72447C78.8141 10.3919 79.7486 11.2511 79.7486 11.2511C79.7486 11.2511 80.6078 12.1822 81.2752 11.5147C81.9427 10.8472 82.0386 9.43694 82.819 8.6565C82.9046 8.57093 82.9833 8.4922 83.0552 8.41689L83.0483 8.42032Z" fill="white"/>
<g id="Group">
<g id="Group_2">
<g id="Group_3">
<path id="Vector_2" d="M49.8383 5.20276C47.7777 5.20276 46.0868 5.99689 45.3816 6.39053C45.1454 6.5206 45.0291 6.60275 45.0291 6.60275L44.6628 6.06877C44.6902 6.05166 46.8672 4.56266 49.8383 4.55582C52.2926 4.54897 55.2809 5.61352 57.8926 9.31717L57.3654 9.69027C54.8427 6.13381 52.1112 5.20961 49.8418 5.20276H49.8383Z" fill="white"/>
<path id="Vector_3" d="M49.8388 8.11254C46.8814 8.11254 44.7112 6.6304 44.6633 6.59959L45.0296 6.06561C45.0296 6.06561 45.1459 6.14776 45.3821 6.27783C45.6183 6.4079 45.9606 6.5859 46.3919 6.76047C47.2545 7.11303 48.4628 7.4656 49.8388 7.46218C52.1083 7.45533 54.8398 6.53455 57.3625 2.97809L57.8896 3.35119C55.2916 7.04458 52.3136 8.11254 49.8594 8.10912H49.8354L49.8388 8.11254Z" fill="white"/>
<path id="Vector_4" d="M57.362 9.31381C59.9703 5.61016 62.9586 4.54562 65.4129 4.55246C68.384 4.55931 70.5576 6.0483 70.5884 6.06541L70.2221 6.5994C70.2221 6.5994 70.1057 6.51725 69.8696 6.38717C69.6368 6.2571 69.2911 6.07911 68.8598 5.90453C67.9972 5.55197 66.7889 5.1994 65.4129 5.1994C63.1434 5.20625 60.4085 6.13045 57.8892 9.68692L57.362 9.31381Z" fill="white"/>
<path id="Vector_5" d="M57.362 3.35119L57.8892 2.97809C60.4119 6.53455 63.14 7.45876 65.4129 7.46218C67.4769 7.46218 69.1644 6.67147 69.8696 6.27441C70.1057 6.14434 70.2221 6.06218 70.2221 6.06218L70.5884 6.59617C70.561 6.61328 68.384 8.1057 65.4129 8.10912C65.4129 8.10912 65.3957 8.10912 65.3889 8.10912C62.938 8.10912 59.9601 7.04115 57.3586 3.34777L57.362 3.35119Z" fill="white"/>
<path id="Vector_6" d="M57.3688 3.36136C57.3585 3.33739 56.6328 2.42688 56.6191 1.36919C56.6191 1.02347 56.7081 0.705132 56.8724 0.451832C57.0299 0.201955 57.2935 0 57.6255 0C57.9575 0 58.2211 0.205378 58.3785 0.451832C58.5428 0.705132 58.6318 1.02347 58.6318 1.36919C58.6181 2.37896 57.8959 3.32713 57.8856 3.35451L57.6289 3.7105L57.3653 3.36136H57.3688ZM57.4133 0.807821C57.3311 0.93447 57.2661 1.13643 57.2661 1.36919C57.2592 1.77652 57.4509 2.23178 57.6221 2.55011C57.6426 2.51588 57.6597 2.47823 57.6768 2.44058C57.8377 2.12224 57.9883 1.70806 57.9849 1.36919C57.9849 1.13985 57.9199 0.93447 57.8377 0.807821C57.7521 0.677748 57.67 0.646941 57.6255 0.646941C57.5776 0.646941 57.5023 0.681171 57.4167 0.807821H57.4133Z" fill="white"/>
<path id="Vector_7" d="M56.8724 12.2134C56.7081 11.9601 56.6191 11.6452 56.6191 11.2995C56.6328 10.2418 57.3585 9.33129 57.3688 9.30733L57.6357 8.95819L57.889 9.31418C57.8959 9.34156 58.6181 10.2897 58.6353 11.3029C58.6353 11.6486 58.5463 11.967 58.382 12.2169C58.2211 12.4667 57.9575 12.6687 57.6289 12.6687C57.3003 12.6687 57.0367 12.4667 56.8758 12.2169L56.8724 12.2134ZM57.8377 11.8609C57.9199 11.7342 57.9849 11.5288 57.9849 11.2995C57.9883 10.9196 57.7932 10.4472 57.6186 10.1152C57.6015 10.146 57.5844 10.1768 57.5707 10.2076C57.4133 10.5191 57.2626 10.9298 57.2626 11.2995C57.2626 11.5288 57.3277 11.7342 57.4098 11.8609C57.4954 11.9909 57.5776 12.0217 57.6221 12.0217C57.67 12.0217 57.7487 11.9909 57.8377 11.8609Z" fill="white"/>
</g>
<path id="Vector_8" d="M76.0062 2.72804C77.0741 4.40872 75.7974 6.39747 74.2707 6.8493C72.7441 7.42093 71.2688 6.8493 70.4917 6.28793C70.9983 7.08206 72.5284 8.1466 74.5172 7.67766C75.4687 7.43805 76.4922 6.86299 77.1049 5.78133C77.7279 4.72706 77.7382 3.2586 77.0296 2.10164C76.3793 0.917293 74.856 0.277198 73.634 0.609226C72.4189 0.893332 71.4536 1.97841 71.4878 3.11142C71.4639 4.2273 72.2238 5.06593 73.0247 5.285C73.8634 5.52461 74.4795 5.02143 74.7842 4.68598C74.0037 5.38769 72.1177 4.78867 72.3538 3.16276C72.4257 1.64981 75.1128 0.958369 76.013 2.73147L76.0062 2.72804Z" fill="white"/>
<path id="Vector_9" d="M77.0262 10.5671C77.7348 9.40668 77.7245 7.94165 77.1015 6.88737C76.4888 5.80572 75.4653 5.23066 74.5137 4.99105C72.5216 4.5221 70.9949 5.58664 70.4883 6.38077C71.2653 5.81941 72.7406 5.24777 74.2673 5.81941C75.7974 6.27124 77.0707 8.25998 76.0027 9.93724C75.1025 11.7103 72.4155 11.0189 72.3436 9.50594C72.1108 7.87661 73.9934 7.28101 74.7773 7.98272C74.4727 7.64727 73.8565 7.14752 73.0145 7.3837C72.2169 7.60277 71.457 8.43798 71.4776 9.55729C71.4433 10.6903 72.4086 11.7754 73.6238 12.0595C74.8458 12.3915 76.369 11.748 77.0194 10.5671H77.0262Z" fill="white"/>
<path id="Vector_10" d="M42.8747 4.65152C42.3749 5.43538 42.9739 6.363 43.6859 6.57523C44.3979 6.84222 45.0893 6.57523 45.4487 6.31166C45.2125 6.68134 44.5006 7.18109 43.5695 6.96202C43.1245 6.84906 42.6453 6.57865 42.3612 6.07547C42.0703 5.58257 42.0634 4.89797 42.3954 4.35714C42.7001 3.80604 43.4121 3.50482 43.9803 3.65886C44.5485 3.79235 45.0003 4.29895 44.9832 4.82951C44.9935 5.3498 44.6375 5.74345 44.2644 5.84271C43.8742 5.95567 43.5832 5.71948 43.4429 5.56203C43.8091 5.89063 44.6888 5.60995 44.5793 4.85005C44.5451 4.14492 43.2923 3.81974 42.8712 4.6481L42.8747 4.65152Z" fill="white"/>
<path id="Vector_11" d="M42.3989 8.3111C42.0668 7.77027 42.0703 7.08226 42.3646 6.59277C42.6487 6.08617 43.128 5.81918 43.5729 5.70622C44.5006 5.48715 45.216 5.98691 45.4521 6.35659C45.0893 6.09302 44.4013 5.82945 43.6893 6.09644C42.9739 6.30867 42.3783 7.23629 42.8781 8.02015C43.2991 8.84851 44.5519 8.52333 44.5861 7.8182C44.6957 7.0583 43.816 6.77761 43.4497 7.10622C43.5901 6.94876 43.8776 6.716 44.2712 6.82554C44.6443 6.9248 45.0003 7.31844 44.99 7.83873C45.0072 8.36587 44.5553 8.87247 43.9871 9.00597C43.4155 9.16 42.7035 8.8622 42.4023 8.30768L42.3989 8.3111Z" fill="white"/>
<path id="Vector_12" d="M71.6104 6.33276C71.6104 6.81882 71.2201 7.20904 70.7341 7.20904C70.248 7.20904 69.8578 6.8154 69.8578 6.33276C69.8578 5.85012 70.2514 5.45648 70.7341 5.45648C71.2167 5.45648 71.6104 5.85012 71.6104 6.33276Z" fill="white"/>
<path id="Vector_13" d="M-0.000457764 6.3324L44.9055 6.70551V5.94561L-0.000457764 6.29475V6.3324ZM70.3861 5.74365V6.92115H70.5059V5.74365H70.3826H70.3861Z" fill="white"/>
</g>
<g id="Group_4">
<g id="Group_5">
<path id="Vector_14" d="M85.7974 41.1615C85.7974 43.2221 85.0032 44.9131 84.6096 45.6182C84.4795 45.8544 84.3974 45.9708 84.3974 45.9708L84.9314 46.337C84.9485 46.3096 86.4375 44.1326 86.4443 41.1615C86.4511 38.7072 85.3866 35.7155 81.683 33.1107L81.3098 33.6378C84.8663 36.1605 85.7905 38.8921 85.7974 41.1615Z" fill="white"/>
<path id="Vector_15" d="M82.888 41.1615C82.8914 44.1189 84.3702 46.2891 84.3975 46.337L84.9349 45.9708C84.9349 45.9708 84.8528 45.8509 84.7227 45.6182C84.5927 45.3854 84.4147 45.0397 84.2401 44.6084C83.8875 43.7458 83.535 42.5375 83.535 41.1615C83.5418 38.8886 84.466 36.1605 88.019 33.6378L87.6459 33.1107C83.9526 35.7087 82.8846 38.6867 82.8846 41.1409V41.1649L82.888 41.1615Z" fill="white"/>
<path id="Vector_16" d="M81.683 33.638C85.3866 31.0297 86.4511 28.0415 86.4443 25.5872C86.4409 22.6161 84.9485 20.4391 84.9314 20.4117L84.3974 20.7779C84.3974 20.7779 84.4795 20.8943 84.6096 21.1305C84.7397 21.3633 84.9177 21.709 85.0922 22.1403C85.4448 23.0029 85.7974 24.2112 85.7974 25.5872C85.7905 27.8566 84.8663 30.5882 81.3098 33.1109L81.683 33.638Z" fill="white"/>
<path id="Vector_17" d="M87.6459 33.638L88.019 33.1109C84.4626 30.5882 83.5384 27.8566 83.535 25.5872C83.535 23.5266 84.3291 21.8356 84.7227 21.1305C84.8528 20.8943 84.9349 20.7779 84.9349 20.7779L84.401 20.4117C84.3838 20.4391 82.8914 22.6161 82.888 25.5872V25.6112C82.888 28.062 83.956 31.04 87.6494 33.6415L87.6459 33.638Z" fill="white"/>
<path id="Vector_18" d="M87.6386 33.6313C87.666 33.6416 88.5731 34.3672 89.6308 34.3809C89.9765 34.3809 90.2949 34.2919 90.5447 34.1276C90.7946 33.9668 90.9966 33.7032 91 33.3746C91 33.0426 90.7946 32.779 90.5447 32.6215C90.2914 32.4572 89.9731 32.3682 89.6308 32.3682C88.621 32.3853 87.6729 33.1042 87.6421 33.1144L87.2861 33.3712L87.6352 33.6381L87.6386 33.6313ZM90.1922 33.5868C90.069 33.669 89.8636 33.734 89.6308 33.734C89.2235 33.7374 88.7682 33.5492 88.4465 33.378C88.4807 33.3575 88.5183 33.3403 88.556 33.3198C88.8743 33.1589 89.2919 33.0083 89.6274 33.0117C89.8567 33.0117 90.0655 33.0768 90.1888 33.1589C90.3188 33.2445 90.3496 33.3232 90.3496 33.3712C90.3496 33.4191 90.3188 33.4944 90.1888 33.58L90.1922 33.5868Z" fill="white"/>
<path id="Vector_19" d="M78.7838 34.1276C79.0371 34.2919 79.352 34.3809 79.6978 34.3809C80.7554 34.3672 81.6625 33.6415 81.6899 33.6312L82.0391 33.3643L81.6831 33.1075C81.6557 33.1007 80.7075 32.3784 79.6943 32.3647C79.3486 32.3647 79.0303 32.4537 78.7804 32.618C78.5305 32.7789 78.3286 33.0425 78.3286 33.3745C78.3286 33.7031 78.5305 33.9667 78.7804 34.1276H78.7838ZM79.1398 33.1623C79.2665 33.0801 79.4718 33.0151 79.7012 33.0151C80.0811 33.0083 80.5501 33.2034 80.8855 33.3779C80.8547 33.3951 80.8273 33.4122 80.7931 33.4259C80.4816 33.5833 80.0709 33.7339 79.7012 33.7339C79.4718 33.7339 79.2665 33.6689 79.1398 33.5867C79.0097 33.5012 78.9789 33.419 78.9789 33.3745C78.9789 33.3266 79.0097 33.2479 79.1398 33.1589V33.1623Z" fill="white"/>
</g>
<path id="Vector_20" d="M88.2688 14.9927C86.5881 13.9248 84.5993 15.2015 84.1475 16.7316C83.5759 18.2583 84.1475 19.7336 84.7089 20.5106C83.9182 20.0074 82.8502 18.4773 83.3191 16.4852C83.5588 15.5302 84.1338 14.5101 85.2155 13.8974C86.2697 13.2744 87.7348 13.2641 88.8952 13.9727C90.0795 14.6231 90.723 16.1463 90.391 17.3683C90.1069 18.5834 89.0218 19.5487 87.8888 19.5145C86.7729 19.5384 85.9343 18.7786 85.7152 17.9776C85.479 17.1389 85.9788 16.5228 86.3142 16.2182C85.6125 16.9986 86.2116 18.8847 87.8375 18.6485C89.347 18.58 90.0419 15.893 88.2688 14.9893V14.9927Z" fill="white"/>
<path id="Vector_21" d="M80.4337 13.9727C81.5941 13.2641 83.0591 13.2744 84.1134 13.8974C85.195 14.5101 85.7701 15.5336 86.0097 16.4852C86.4786 18.4773 85.4107 20.0074 84.62 20.5106C85.1813 19.7336 85.753 18.2583 85.1779 16.7316C84.7261 15.2015 82.7373 13.9248 81.0601 14.9927C79.287 15.893 79.9784 18.58 81.4914 18.6519C83.1207 18.8881 83.7163 17.002 83.0146 16.2216C83.35 16.5228 83.8498 17.1424 83.6136 17.981C83.3945 18.782 82.5559 19.5419 81.44 19.5179C80.307 19.5487 79.2254 18.5869 78.9413 17.3683C78.6092 16.1463 79.2493 14.6231 80.4337 13.9727Z" fill="white"/>
<path id="Vector_22" d="M86.3478 48.1237C85.5639 48.6235 84.6363 48.0244 84.4241 47.3125C84.1571 46.5971 84.4241 45.909 84.6877 45.5462C84.318 45.7824 83.8182 46.4978 84.0373 47.4254C84.1468 47.8704 84.4172 48.3496 84.9238 48.6337C85.4167 48.9247 86.1013 48.9281 86.6422 48.5995C87.1967 48.2948 87.4945 47.5829 87.3405 47.0147C87.207 46.4464 86.7004 45.998 86.1732 46.0117C85.6495 46.0015 85.2593 46.3574 85.1566 46.7306C85.0471 47.1208 85.2798 47.4117 85.4373 47.5521C85.1087 47.1858 85.3859 46.3061 86.1493 46.4156C86.8544 46.4499 87.1796 47.7027 86.3512 48.1237H86.3478Z" fill="white"/>
<path id="Vector_23" d="M82.6885 48.5995C83.2293 48.9281 83.9173 48.9281 84.4068 48.6337C84.91 48.3496 85.1804 47.8704 85.2933 47.4254C85.5124 46.4978 85.0161 45.7824 84.643 45.5462C84.9066 45.909 85.1701 46.5971 84.9031 47.3125C84.6909 48.0279 83.7633 48.6235 82.9794 48.1237C82.1511 47.7027 82.4762 46.4464 83.1814 46.4156C83.9413 46.3061 84.222 47.1858 83.8934 47.5521C84.0508 47.4117 84.2836 47.1242 84.174 46.7306C84.0748 46.3574 83.6811 46.0015 83.1574 46.0117C82.6303 45.998 82.1237 46.4464 81.9902 47.0147C81.8361 47.5863 82.1339 48.2948 82.6885 48.5995Z" fill="white"/>
<path id="Vector_24" d="M84.6682 19.3845C84.1821 19.3845 83.7885 19.7781 83.7919 20.2607C83.7919 20.7434 84.1855 21.137 84.6682 21.137C85.1508 21.137 85.5444 20.7434 85.5444 20.2607C85.5444 19.7747 85.1508 19.3845 84.6682 19.3845Z" fill="white"/>
<path id="Vector_25" d="M84.6676 91L84.2945 46.094H85.0544L84.7053 91H84.6676ZM85.2529 20.6135H84.0789V20.4937H85.2529V20.6135Z" fill="white"/>
</g>
</g>
</g>
<g id="Group 12251" opacity="0.5">
<path id="Vector_26" d="M83.863 202.418L84.4175 201.863C84.972 202.377 85.6703 203.041 86.2077 203.575C87.2449 204.612 89.1173 204.735 90.0004 205.622C90.8869 206.512 90.7637 208.767 90.7637 208.767C90.7637 208.767 88.508 208.891 87.6214 208.004C86.7349 207.118 86.6116 205.245 85.5745 204.211C85.0405 203.674 84.3799 202.976 83.863 202.421V202.418ZM83.0723 204.42C83.0483 204.437 83.0209 204.458 83.0004 204.478C82.7813 204.698 82.7813 205.054 83.0004 205.276C83.2195 205.495 83.5755 205.495 83.798 205.276C83.887 205.184 83.9417 205.067 83.9554 204.947C83.9554 204.947 84.1266 204.311 83.1442 203.14L83.4625 202.822C84.3422 203.729 86.016 205.783 84.7838 207.244C84.7461 207.292 84.705 207.34 84.6571 207.385C83.9725 208.069 82.8601 208.069 82.172 207.385C81.4875 206.7 81.4875 205.587 82.172 204.899C82.4253 204.646 82.7403 204.485 83.0689 204.42H83.0723ZM89.3808 202.661C89.3363 202.705 89.2884 202.746 89.2405 202.787C87.7789 204.016 85.7251 202.346 84.818 201.466L85.1363 201.148C86.307 202.13 86.9471 201.959 86.9471 201.959C87.0669 201.942 87.1833 201.891 87.2757 201.802C87.4948 201.583 87.4948 201.227 87.2757 201.008C87.0566 200.788 86.7006 200.788 86.4816 201.008C86.4576 201.032 86.4405 201.055 86.4234 201.079C86.4884 200.751 86.6493 200.439 86.9026 200.183C87.5872 199.498 88.6997 199.498 89.3842 200.183C90.0688 200.867 90.0688 201.98 89.3842 202.668L89.3808 202.661ZM81.8434 203.113C81.6278 202.897 81.6278 202.551 81.8434 202.336L84.3354 199.84C84.551 199.625 84.8967 199.625 85.1124 199.84C85.328 200.056 85.328 200.402 85.1124 200.617L82.617 203.113C82.4048 203.325 82.0557 203.325 81.8434 203.113ZM82.0351 201.593C81.306 201.062 80.909 201.168 80.909 201.168C80.82 201.182 80.731 201.22 80.6625 201.288C80.4982 201.453 80.4982 201.723 80.6625 201.887C80.8302 202.052 81.0972 202.052 81.2615 201.887C81.2787 201.87 81.2923 201.853 81.306 201.832C81.2581 202.079 81.1349 202.319 80.9432 202.51C80.4263 203.027 79.5911 203.027 79.0708 202.51C78.554 201.993 78.554 201.155 79.0708 200.638C79.1051 200.604 79.1427 200.573 79.177 200.542C80.173 199.703 81.5354 200.655 82.2919 201.336L82.0351 201.593ZM84.5031 198.947C84.3114 199.139 84.0786 199.258 83.8288 199.31C83.8493 199.296 83.8664 199.282 83.8835 199.265C84.0478 199.101 84.0478 198.831 83.8835 198.666C83.7192 198.502 83.4488 198.502 83.2845 198.666C83.2161 198.735 83.1784 198.824 83.1647 198.913C83.1647 198.913 83.0586 199.306 83.5892 200.039L83.3324 200.296C82.6513 199.539 81.7031 198.177 82.5417 197.181C82.5691 197.143 82.6033 197.109 82.6341 197.075C83.151 196.558 83.9896 196.558 84.5031 197.075C85.0234 197.591 85.02 198.43 84.5031 198.947ZM83.0483 200.58L82.5794 201.052C82.5041 200.98 82.4219 200.901 82.3398 200.816C81.5593 200.035 80.1491 199.943 79.4816 199.276C78.8141 198.608 79.7486 197.749 79.7486 197.749C79.7486 197.749 80.6078 196.818 81.2752 197.485C81.9427 198.153 82.0386 199.563 82.819 200.343C82.9046 200.429 82.9833 200.508 83.0552 200.583L83.0483 200.58Z" fill="white"/>
<g id="Group_6">
<g id="Group_7">
<g id="Group_8">
<path id="Vector_27" d="M49.8383 203.797C47.7777 203.797 46.0868 203.003 45.3816 202.609C45.1454 202.479 45.0291 202.397 45.0291 202.397L44.6628 202.931C44.6902 202.948 46.8672 204.437 49.8383 204.444C52.2926 204.451 55.2809 203.386 57.8926 199.683L57.3654 199.31C54.8427 202.866 52.1112 203.79 49.8418 203.797H49.8383Z" fill="white"/>
<path id="Vector_28" d="M49.8388 200.887C46.8814 200.887 44.7112 202.37 44.6633 202.4L45.0296 202.934C45.0296 202.934 45.1459 202.852 45.3821 202.722C45.6183 202.592 45.9606 202.414 46.3919 202.24C47.2545 201.887 48.4628 201.534 49.8388 201.538C52.1083 201.545 54.8398 202.465 57.3625 206.022L57.8896 205.649C55.2916 201.955 52.3136 200.887 49.8594 200.891H49.8354L49.8388 200.887Z" fill="white"/>
<path id="Vector_29" d="M57.362 199.686C59.9703 203.39 62.9586 204.454 65.4129 204.448C68.384 204.441 70.5576 202.952 70.5884 202.935L70.2221 202.401C70.2221 202.401 70.1057 202.483 69.8696 202.613C69.6368 202.743 69.2911 202.921 68.8598 203.095C67.9972 203.448 66.7889 203.801 65.4129 203.801C63.1434 203.794 60.4085 202.87 57.8892 199.313L57.362 199.686Z" fill="white"/>
<path id="Vector_30" d="M57.362 205.649L57.8892 206.022C60.4119 202.465 63.14 201.541 65.4129 201.538C67.4769 201.538 69.1644 202.329 69.8696 202.726C70.1057 202.856 70.2221 202.938 70.2221 202.938L70.5884 202.404C70.561 202.387 68.384 200.894 65.4129 200.891C65.4129 200.891 65.3957 200.891 65.3889 200.891C62.938 200.891 59.9601 201.959 57.3586 205.652L57.362 205.649Z" fill="white"/>
<path id="Vector_31" d="M57.3688 205.639C57.3585 205.663 56.6328 206.573 56.6191 207.631C56.6191 207.977 56.7081 208.295 56.8724 208.548C57.0299 208.798 57.2935 209 57.6255 209C57.9575 209 58.2211 208.795 58.3785 208.548C58.5428 208.295 58.6318 207.977 58.6318 207.631C58.6181 206.621 57.8959 205.673 57.8856 205.645L57.6289 205.29L57.3653 205.639H57.3688ZM57.4133 208.192C57.3311 208.066 57.2661 207.864 57.2661 207.631C57.2592 207.223 57.4509 206.768 57.6221 206.45C57.6426 206.484 57.6597 206.522 57.6768 206.559C57.8377 206.878 57.9883 207.292 57.9849 207.631C57.9849 207.86 57.9199 208.066 57.8377 208.192C57.7521 208.322 57.67 208.353 57.6255 208.353C57.5776 208.353 57.5023 208.319 57.4167 208.192H57.4133Z" fill="white"/>
<path id="Vector_32" d="M56.8724 196.787C56.7081 197.04 56.6191 197.355 56.6191 197.7C56.6328 198.758 57.3585 199.669 57.3688 199.693L57.6357 200.042L57.889 199.686C57.8959 199.658 58.6181 198.71 58.6353 197.697C58.6353 197.351 58.5463 197.033 58.382 196.783C58.2211 196.533 57.9575 196.331 57.6289 196.331C57.3003 196.331 57.0367 196.533 56.8758 196.783L56.8724 196.787ZM57.8377 197.139C57.9199 197.266 57.9849 197.471 57.9849 197.7C57.9883 198.08 57.7932 198.553 57.6186 198.885C57.6015 198.854 57.5844 198.823 57.5707 198.792C57.4133 198.481 57.2626 198.07 57.2626 197.7C57.2626 197.471 57.3277 197.266 57.4098 197.139C57.4954 197.009 57.5776 196.978 57.6221 196.978C57.67 196.978 57.7487 197.009 57.8377 197.139Z" fill="white"/>
</g>
<path id="Vector_33" d="M76.0062 206.272C77.0741 204.591 75.7974 202.603 74.2707 202.151C72.7441 201.579 71.2688 202.151 70.4917 202.712C70.9983 201.918 72.5284 200.853 74.5172 201.322C75.4687 201.562 76.4922 202.137 77.1049 203.219C77.7279 204.273 77.7382 205.741 77.0296 206.898C76.3793 208.083 74.856 208.723 73.634 208.391C72.4189 208.107 71.4536 207.022 71.4878 205.889C71.4639 204.773 72.2238 203.934 73.0247 203.715C73.8634 203.475 74.4795 203.979 74.7842 204.314C74.0037 203.612 72.1177 204.211 72.3538 205.837C72.4257 207.35 75.1128 208.042 76.013 206.269L76.0062 206.272Z" fill="white"/>
<path id="Vector_34" d="M77.0262 198.433C77.7348 199.593 77.7245 201.058 77.1015 202.113C76.4888 203.194 75.4653 203.769 74.5137 204.009C72.5216 204.478 70.9949 203.413 70.4883 202.619C71.2653 203.181 72.7406 203.752 74.2673 203.181C75.7974 202.729 77.0707 200.74 76.0027 199.063C75.1025 197.29 72.4155 197.981 72.3436 199.494C72.1108 201.123 73.9934 201.719 74.7773 201.017C74.4727 201.353 73.8565 201.852 73.0145 201.616C72.2169 201.397 71.457 200.562 71.4776 199.443C71.4433 198.31 72.4086 197.225 73.6238 196.941C74.8458 196.608 76.369 197.252 77.0194 198.433H77.0262Z" fill="white"/>
<path id="Vector_35" d="M42.8747 204.348C42.3749 203.565 42.9739 202.637 43.6859 202.425C44.3979 202.158 45.0893 202.425 45.4487 202.688C45.2125 202.319 44.5006 201.819 43.5695 202.038C43.1245 202.151 42.6453 202.421 42.3612 202.925C42.0703 203.417 42.0634 204.102 42.3954 204.643C42.7001 205.194 43.4121 205.495 43.9803 205.341C44.5485 205.208 45.0003 204.701 44.9832 204.17C44.9935 203.65 44.6375 203.257 44.2644 203.157C43.8742 203.044 43.5832 203.281 43.4429 203.438C43.8091 203.109 44.6888 203.39 44.5793 204.15C44.5451 204.855 43.2923 205.18 42.8712 204.352L42.8747 204.348Z" fill="white"/>
<path id="Vector_36" d="M42.3989 200.689C42.0668 201.23 42.0703 201.918 42.3646 202.407C42.6487 202.914 43.128 203.181 43.5729 203.294C44.5006 203.513 45.216 203.013 45.4521 202.643C45.0893 202.907 44.4013 203.171 43.6893 202.904C42.9739 202.691 42.3783 201.764 42.8781 200.98C43.2991 200.151 44.5519 200.477 44.5861 201.182C44.6957 201.942 43.816 202.222 43.4497 201.894C43.5901 202.051 43.8776 202.284 44.2712 202.174C44.6443 202.075 45.0003 201.682 44.99 201.161C45.0072 200.634 44.5553 200.128 43.9871 199.994C43.4155 199.84 42.7035 200.138 42.4023 200.692L42.3989 200.689Z" fill="white"/>
<path id="Vector_37" d="M71.6104 202.667C71.6104 202.181 71.2201 201.791 70.7341 201.791C70.248 201.791 69.8578 202.185 69.8578 202.667C69.8578 203.15 70.2514 203.544 70.7341 203.544C71.2167 203.544 71.6104 203.15 71.6104 202.667Z" fill="white"/>
<path id="Vector_38" d="M-0.000457764 202.668L44.9055 202.294V203.054L-0.000457764 202.705V202.668ZM70.3861 203.256V202.079H70.5059V203.256H70.3826H70.3861Z" fill="white"/>
</g>
<g id="Group_9">
<g id="Group_10">
<path id="Vector_39" d="M85.7974 167.839C85.7974 165.778 85.0032 164.087 84.6096 163.382C84.4795 163.146 84.3974 163.029 84.3974 163.029L84.9314 162.663C84.9485 162.69 86.4375 164.867 86.4443 167.839C86.4511 170.293 85.3866 173.284 81.683 175.889L81.3098 175.362C84.8663 172.839 85.7905 170.108 85.7974 167.839Z" fill="white"/>
<path id="Vector_40" d="M82.888 167.839C82.8914 164.881 84.3702 162.711 84.3975 162.663L84.9349 163.029C84.9349 163.029 84.8528 163.149 84.7227 163.382C84.5927 163.615 84.4147 163.96 84.2401 164.392C83.8875 165.254 83.535 166.462 83.535 167.839C83.5418 170.111 84.466 172.839 88.019 175.362L87.6459 175.889C83.9526 173.291 82.8846 170.313 82.8846 167.859V167.835L82.888 167.839Z" fill="white"/>
<path id="Vector_41" d="M81.683 175.362C85.3866 177.97 86.4511 180.959 86.4443 183.413C86.4409 186.384 84.9485 188.561 84.9314 188.588L84.3974 188.222C84.3974 188.222 84.4795 188.106 84.6096 187.869C84.7397 187.637 84.9177 187.291 85.0922 186.86C85.4448 185.997 85.7974 184.789 85.7974 183.413C85.7905 181.143 84.8663 178.412 81.3098 175.889L81.683 175.362Z" fill="white"/>
<path id="Vector_42" d="M87.6459 175.362L88.019 175.889C84.4626 178.412 83.5384 181.143 83.535 183.413C83.535 185.473 84.3291 187.164 84.7227 187.869C84.8528 188.106 84.9349 188.222 84.9349 188.222L84.401 188.588C84.3838 188.561 82.8914 186.384 82.888 183.413V183.389C82.888 180.938 83.956 177.96 87.6494 175.359L87.6459 175.362Z" fill="white"/>
<path id="Vector_43" d="M87.6386 175.369C87.666 175.358 88.5731 174.633 89.6308 174.619C89.9765 174.619 90.2949 174.708 90.5447 174.872C90.7946 175.033 90.9966 175.297 91 175.625C91 175.957 90.7946 176.221 90.5447 176.378C90.2914 176.543 89.9731 176.632 89.6308 176.632C88.621 176.615 87.6729 175.896 87.6421 175.886L87.2861 175.629L87.6352 175.362L87.6386 175.369ZM90.1922 175.413C90.069 175.331 89.8636 175.266 89.6308 175.266C89.2235 175.263 88.7682 175.451 88.4465 175.622C88.4807 175.643 88.5183 175.66 88.556 175.68C88.8743 175.841 89.2919 175.992 89.6274 175.988C89.8567 175.988 90.0655 175.923 90.1888 175.841C90.3188 175.755 90.3496 175.677 90.3496 175.629C90.3496 175.581 90.3188 175.506 90.1888 175.42L90.1922 175.413Z" fill="white"/>
<path id="Vector_44" d="M78.7838 174.872C79.0371 174.708 79.352 174.619 79.6978 174.619C80.7554 174.633 81.6625 175.358 81.6899 175.369L82.0391 175.636L81.6831 175.892C81.6557 175.899 80.7075 176.622 79.6943 176.635C79.3486 176.635 79.0303 176.546 78.7804 176.382C78.5305 176.221 78.3286 175.958 78.3286 175.625C78.3286 175.297 78.5305 175.033 78.7804 174.872H78.7838ZM79.1398 175.838C79.2665 175.92 79.4718 175.985 79.7012 175.985C80.0811 175.992 80.5501 175.797 80.8855 175.622C80.8547 175.605 80.8273 175.588 80.7931 175.574C80.4816 175.417 80.0709 175.266 79.7012 175.266C79.4718 175.266 79.2665 175.331 79.1398 175.413C79.0097 175.499 78.9789 175.581 78.9789 175.625C78.9789 175.673 79.0097 175.752 79.1398 175.841V175.838Z" fill="white"/>
</g>
<path id="Vector_45" d="M88.2688 194.007C86.5881 195.075 84.5993 193.798 84.1475 192.268C83.5759 190.742 84.1475 189.266 84.7089 188.489C83.9182 188.993 82.8502 190.523 83.3191 192.515C83.5588 193.47 84.1338 194.49 85.2155 195.103C86.2697 195.726 87.7348 195.736 88.8952 195.027C90.0795 194.377 90.723 192.854 90.391 191.632C90.1069 190.417 89.0218 189.451 87.8888 189.486C86.7729 189.462 85.9343 190.221 85.7152 191.022C85.479 191.861 85.9788 192.477 86.3142 192.782C85.6125 192.001 86.2116 190.115 87.8375 190.352C89.347 190.42 90.0419 193.107 88.2688 194.011V194.007Z" fill="white"/>
<path id="Vector_46" d="M80.4337 195.027C81.5941 195.736 83.0591 195.726 84.1134 195.103C85.195 194.49 85.7701 193.466 86.0097 192.515C86.4786 190.523 85.4107 188.993 84.62 188.489C85.1813 189.266 85.753 190.742 85.1779 192.268C84.7261 193.798 82.7373 195.075 81.0601 194.007C79.287 193.107 79.9784 190.42 81.4914 190.348C83.1207 190.112 83.7163 191.998 83.0146 192.778C83.35 192.477 83.8498 191.858 83.6136 191.019C83.3945 190.218 82.5559 189.458 81.44 189.482C80.307 189.451 79.2254 190.413 78.9413 191.632C78.6092 192.854 79.2493 194.377 80.4337 195.027Z" fill="white"/>
<path id="Vector_47" d="M86.3478 160.876C85.5639 160.377 84.6363 160.976 84.4241 161.688C84.1571 162.403 84.4241 163.091 84.6877 163.454C84.318 163.218 83.8182 162.502 84.0373 161.575C84.1468 161.13 84.4172 160.65 84.9238 160.366C85.4167 160.075 86.1013 160.072 86.6422 160.401C87.1967 160.705 87.4945 161.417 87.3405 161.985C87.207 162.554 86.7004 163.002 86.1732 162.988C85.6495 162.999 85.2593 162.643 85.1566 162.269C85.0471 161.879 85.2798 161.588 85.4373 161.448C85.1087 161.814 85.3859 162.694 86.1493 162.584C86.8544 162.55 87.1796 161.297 86.3512 160.876H86.3478Z" fill="white"/>
<path id="Vector_48" d="M82.6885 160.401C83.2293 160.072 83.9173 160.072 84.4068 160.366C84.91 160.65 85.1804 161.13 85.2933 161.575C85.5124 162.502 85.0161 163.218 84.643 163.454C84.9066 163.091 85.1701 162.403 84.9031 161.688C84.6909 160.972 83.7633 160.377 82.9794 160.876C82.1511 161.297 82.4762 162.554 83.1814 162.584C83.9413 162.694 84.222 161.814 83.8934 161.448C84.0508 161.588 84.2836 161.876 84.174 162.269C84.0748 162.643 83.6811 162.999 83.1574 162.988C82.6303 163.002 82.1237 162.554 81.9902 161.985C81.8361 161.414 82.1339 160.705 82.6885 160.401Z" fill="white"/>
<path id="Vector_49" d="M84.6682 189.616C84.1821 189.616 83.7885 189.222 83.7919 188.739C83.7919 188.257 84.1855 187.863 84.6682 187.863C85.1508 187.863 85.5444 188.257 85.5444 188.739C85.5444 189.225 85.1508 189.616 84.6682 189.616Z" fill="white"/>
<path id="Vector_50" d="M84.6676 118L84.2945 162.906H85.0544L84.7053 118H84.6676ZM85.2529 188.387H84.0789V188.506H85.2529V188.387Z" fill="white"/>
</g>
</g>
</g>
</g>
</svg>
