<svg width="84" height="30" viewBox="0 0 84 30" fill="none" xmlns="http://www.w3.org/2000/svg">
<g id="Layer_1" opacity="0.5" clip-path="url(#clip0_978_758)">
<path id="Vector" d="M21.0414 13.1265C18.1741 12.7072 15.326 12.8217 12.5741 13.2896C9.83567 13.7265 7.20886 14.5904 5.06509 16.0679C2.93092 17.5454 1.43375 19.7568 0.989212 22.1603C0.531204 24.5173 0.885292 27.1539 2.76735 28.4216C4.49738 29.7652 7.08185 29.6312 8.35773 28.0819C9.71058 26.6199 9.61243 24.1795 8.13642 23.135C6.74893 21.9662 4.58591 22.5117 4.0336 24.0028C3.32542 25.4648 4.49738 27.0781 5.81944 27.0374C4.51086 27.1772 3.14069 25.5482 3.83732 23.9232C4.3569 22.2749 6.77202 21.539 8.37505 22.8088C10.0935 23.9426 10.3052 26.7558 8.7888 28.4585C7.34742 30.2874 4.34151 30.5126 2.34783 29.0041C0.142471 27.5422 -0.303993 24.527 0.173264 22.0031C0.615875 19.3782 2.25161 16.9144 4.53972 15.3088C6.83168 13.6993 9.58934 12.7887 12.4144 12.3228C15.2298 11.8277 18.2183 11.7015 21.1742 12.1364C32.9535 14.107 42.8122 19.3743 51.8626 21.3332C56.3407 22.3972 60.6128 22.7428 64.1807 21.8769C67.7735 21.0595 70.3734 18.9957 72.0322 17.1066C70.4908 19.0869 67.939 21.308 64.2788 22.269C60.6494 23.2767 56.2599 23.0301 51.7067 22.0361C42.5177 20.2169 32.5339 15.0331 21.0414 13.1246V13.1265Z" fill="#564D46"/>
<path id="Vector_2" d="M62.9587 16.8736C65.826 17.293 68.6741 17.1784 71.426 16.7086C74.1625 16.2717 76.7913 15.4078 78.935 13.9303C81.0692 12.4528 82.5664 10.2415 83.0109 7.83983C83.4689 5.48285 83.1148 2.8463 81.2347 1.5785C79.5047 0.234989 76.9202 0.368953 75.6443 1.91827C74.2915 3.38021 74.3877 5.82067 75.8656 6.8652C77.2531 8.03398 79.4142 7.48842 79.9684 5.99735C80.6766 4.5354 79.5027 2.92202 78.1826 2.96279C79.4912 2.823 80.8614 4.45386 80.1647 6.07695C79.6451 7.72528 77.2281 8.46111 75.627 7.19137C73.9085 6.05754 73.6968 3.24431 75.2133 1.54162C76.6527 -0.289215 79.6586 -0.512487 81.6523 0.996056C83.8596 2.458 84.306 5.47315 83.8269 7.99709C83.3842 10.6201 81.7485 13.0858 79.4604 14.6894C77.1665 16.2989 74.4108 17.2095 71.5858 17.6754C68.7704 18.1725 65.7818 18.2967 62.8259 17.8618C51.0467 15.8912 41.188 10.6239 32.1375 8.66497C27.6594 7.60103 23.3853 7.25544 19.8175 8.12135C16.2266 8.93872 13.6248 11.0025 11.966 12.8916C13.5074 10.9113 16.0611 8.6902 19.7174 7.72722C23.3469 6.71959 27.7364 6.9681 32.2915 7.9602C41.4805 9.77938 51.4642 14.9632 62.9548 16.8717L62.9587 16.8736Z" fill="#564D46"/>
</g>
<defs>
<clipPath id="clip0_978_758">
<rect width="84" height="30" fill="white" transform="matrix(-1 0 0 1 84 0)"/>
</clipPath>
</defs>
</svg>
