<svg width="20" height="20" viewBox="0 0 20 20" fill="none" xmlns="http://www.w3.org/2000/svg">
<path d="M0 14.1026C0 17.359 2.64103 20 5.89744 20H14.1026C17.359 20 20 17.359 20 14.1026V5.89744C20 2.64103 17.359 0 14.1026 0H5.89744C2.64103 0 0 2.64103 0 5.89744V14.1026ZM15.3846 3.58974C16.1026 3.58974 16.6667 4.15385 16.6667 4.8718C16.6667 5.58974 16.1026 6.15385 15.3846 6.15385C14.6667 6.15385 14.1026 5.58974 14.1026 4.8718C14.1026 4.15385 14.6667 3.58974 15.3846 3.58974ZM10 5.12821C12.6923 5.12821 14.8718 7.30769 14.8718 10C14.8718 12.6923 12.6923 14.8718 10 14.8718C7.30769 14.8718 5.12821 12.6923 5.12821 10C5.12821 7.30769 7.30769 5.12821 10 5.12821Z" fill="url(#paint0_linear_1165_8)"/>
<path d="M13.3332 10C13.3332 11.841 11.8409 13.3334 9.99984 13.3334C8.15881 13.3334 6.6665 11.841 6.6665 10C6.6665 8.15899 8.15881 6.66669 9.99984 6.66669C11.8409 6.66669 13.3332 8.15899 13.3332 10Z" fill="url(#paint1_linear_1165_8)"/>
<defs>
<linearGradient id="paint0_linear_1165_8" x1="1.88586" y1="20" x2="18.1141" y2="1.21765e-07" gradientUnits="userSpaceOnUse">
<stop stop-color="#FAB861"/>
<stop offset="0.565" stop-color="#D52D84"/>
<stop offset="1" stop-color="#7A3CB9"/>
</linearGradient>
<linearGradient id="paint1_linear_1165_8" x1="7.29512" y1="13.3334" x2="12.7046" y2="6.66669" gradientUnits="userSpaceOnUse">
<stop stop-color="#FAB861"/>
<stop offset="0.565" stop-color="#D52D84"/>
<stop offset="1" stop-color="#7A3CB9"/>
</linearGradient>
</defs>
</svg>
