<svg width="20" height="20" viewBox="0 0 20 20" fill="none" xmlns="http://www.w3.org/2000/svg">
<mask id="mask0_1165_11" style="mask-type:alpha" maskUnits="userSpaceOnUse" x="0" y="0" width="20" height="20">
<path d="M0 10C0 4.47715 4.47715 0 10 0C15.5229 0 20 4.47715 20 10C20 15.5229 15.5229 20 10 20C4.47715 20 0 15.5229 0 10Z" fill="black"/>
</mask>
<g mask="url(#mask0_1165_11)">
<path fill-rule="evenodd" clip-rule="evenodd" d="M0.00439498 9.70025C4.0555 9.64975 6.33287 9.37267 7.85279 7.85277C9.37269 6.33287 9.64975 4.0555 9.70027 0.00439453C4.41562 0.159954 0.159963 4.4156 0.00439498 9.70025ZM10.2997 0.00439456C10.3502 4.05549 10.6273 6.33287 12.1472 7.85277C13.6671 9.37267 15.9445 9.64974 19.9956 9.70025C19.84 4.4156 15.5844 0.159955 10.2997 0.00439456ZM19.9956 10.2997C15.9445 10.3502 13.6671 10.6273 12.1472 12.1472C10.6273 13.6671 10.3502 15.9445 10.2997 19.9956C15.5844 19.84 19.84 15.5844 19.9956 10.2997ZM9.70027 19.9956C9.64975 15.9445 9.37269 13.6671 7.85279 12.1472C6.33289 10.6273 4.0555 10.3502 0.00439453 10.2997C0.159955 15.5844 4.41561 19.84 9.70027 19.9956Z" fill="black"/>
</g>
</svg>
