<svg width="24" height="20" viewBox="0 0 24 20" fill="none" xmlns="http://www.w3.org/2000/svg">
<path d="M17.6471 0H5.88235C2.35294 0 0 1.76471 0 5.88235V14.1176C0 18.2353 2.35294 20 5.88235 20H17.6471C21.1765 20 23.5294 18.2353 23.5294 14.1176V5.88235C23.5294 1.76471 21.1765 0 17.6471 0ZM18.2 7.16471L14.5176 10.1059C13.7412 10.7294 12.7529 11.0353 11.7647 11.0353C10.7765 11.0353 9.77647 10.7294 9.01176 10.1059L5.32941 7.16471C4.95294 6.85882 4.89412 6.29412 5.18823 5.91765C5.49412 5.54118 6.04706 5.47059 6.42353 5.77647L10.1059 8.71765C11 9.43529 12.5176 9.43529 13.4118 8.71765L17.0941 5.77647C17.4706 5.47059 18.0353 5.52941 18.3294 5.91765C18.6353 6.29412 18.5765 6.85882 18.2 7.16471Z" fill="#0F542A"/>
</svg>
