<svg width="25" height="25" viewBox="0 0 25 25" fill="none" xmlns="http://www.w3.org/2000/svg">
<circle cx="12.5" cy="12.5" r="12" fill="#D9D9D9" stroke="white"/>
<path d="M8.12251 16.8772C8.20032 16.9519 8.30276 16.9956 8.41052 17C8.51828 16.9955 8.62071 16.9519 8.69854 16.8772L12.5 13.0726L16.3047 16.8772C16.3417 16.916 16.3861 16.9468 16.4353 16.9678C16.4846 16.9889 16.5376 16.9997 16.5911 16.9997C16.6446 16.9997 16.6976 16.9889 16.7468 16.9678C16.7961 16.9468 16.8405 16.916 16.8775 16.8772C16.9162 16.8403 16.947 16.7958 16.9681 16.7466C16.9891 16.6974 17 16.6444 17 16.5908C17 16.5373 16.9891 16.4843 16.9681 16.4351C16.947 16.3859 16.9162 16.3414 16.8775 16.3045L13.0724 12.4999L16.8771 8.69528C16.9159 8.6583 16.9467 8.61386 16.9677 8.56464C16.9888 8.51541 16.9996 8.46243 16.9996 8.40889C16.9996 8.35535 16.9888 8.30237 16.9677 8.25315C16.9467 8.20392 16.9159 8.15948 16.8771 8.1225C16.8402 8.08379 16.7957 8.05297 16.7465 8.03191C16.6973 8.01086 16.6443 8 16.5907 8C16.5372 8 16.4842 8.01086 16.435 8.03191C16.3858 8.05297 16.3413 8.08379 16.3043 8.1225L12.5 11.9271L8.6953 8.1225C8.65832 8.08379 8.61388 8.05297 8.56465 8.03191C8.51543 8.01086 8.46244 8 8.4089 8C8.35536 8 8.30238 8.01086 8.25315 8.03191C8.20393 8.05297 8.15948 8.08379 8.12251 8.1225C8.08379 8.15948 8.05297 8.20392 8.03191 8.25315C8.01086 8.30237 8 8.35535 8 8.40889C8 8.46243 8.01086 8.51541 8.03191 8.56464C8.05297 8.61386 8.08379 8.6583 8.12251 8.69528L11.9272 12.4999L8.12251 16.3045C8.08379 16.3414 8.05297 16.3859 8.03191 16.4351C8.01086 16.4843 8 16.5373 8 16.5908C8 16.6444 8.01086 16.6974 8.03191 16.7466C8.05297 16.7958 8.08379 16.8403 8.12251 16.8772Z" fill="black"/>
</svg>
