<svg width="18" height="18" viewBox="0 0 18 18" fill="none" xmlns="http://www.w3.org/2000/svg">
<g id="vuesax/linear/profile-circle">
<g id="profile-circle">
<path id="Vector" d="M9.09004 9.58499C9.03754 9.57749 8.97004 9.57749 8.91004 9.58499C7.59004 9.53999 6.54004 8.45999 6.54004 7.13249C6.54004 5.77499 7.63504 4.67249 9.00004 4.67249C10.3575 4.67249 11.46 5.77499 11.46 7.13249C11.4525 8.45999 10.41 9.53999 9.09004 9.58499Z" stroke="#505050" stroke-linecap="round" stroke-linejoin="round"/>
<path id="Vector_2" d="M14.0548 14.535C12.7198 15.7575 10.9498 16.5 8.99982 16.5C7.04982 16.5 5.27982 15.7575 3.94482 14.535C4.01982 13.83 4.46982 13.14 5.27232 12.6C7.32732 11.235 10.6873 11.235 12.7273 12.6C13.5298 13.14 13.9798 13.83 14.0548 14.535Z" stroke="#505050" stroke-linecap="round" stroke-linejoin="round"/>
<path id="Vector_3" d="M9 16.5C13.1421 16.5 16.5 13.1421 16.5 9C16.5 4.85786 13.1421 1.5 9 1.5C4.85786 1.5 1.5 4.85786 1.5 9C1.5 13.1421 4.85786 16.5 9 16.5Z" stroke="#505050" stroke-linecap="round" stroke-linejoin="round"/>
</g>
</g>
</svg>
