<svg width="40" height="26" viewBox="0 0 40 26" fill="none" xmlns="http://www.w3.org/2000/svg">
<g id="Layer_1" clip-path="url(#clip0_978_762)">
<path id="Vector" d="M30.76 0C35.85 0 40 4.14 40 9.24C40 13.96 36.38 17.91 31.78 18.42C31.66 20.43 32.37 22.34 33.92 24.11C34.28 24.52 34.24 25.15 33.82 25.52C33.63 25.68 33.4 25.76 33.16 25.76C32.92 25.76 32.66 25.67 32.47 25.48C32.38 25.43 32.17 25.36 32.05 25.31C31.86 25.24 31.68 25.18 31.56 25.11C27.53 23.07 24.44 20.05 22.85 16.61C21.93 14.61 21.42 12.27 21.42 10.07C21.42 9.77 21.43 9.47 21.45 9.17C21.78 4.11 25.96 0 30.76 0Z" fill="#FFAC08"/>
<path id="Vector_2" d="M9.34008 0C14.4301 0 18.5801 4.14 18.5801 9.24C18.5801 13.96 14.9601 17.91 10.3501 18.42C10.2401 20.43 10.9501 22.34 12.4901 24.11C12.8601 24.52 12.8101 25.15 12.4001 25.52C12.2101 25.68 11.9701 25.76 11.7401 25.76C11.4901 25.76 11.2401 25.67 11.0401 25.48C10.9601 25.43 10.7501 25.36 10.6301 25.31C10.4301 25.24 10.2601 25.18 10.1301 25.11C6.11008 23.07 3.02008 20.05 1.43008 16.61C0.510078 14.61 7.82013e-05 12.27 7.82013e-05 10.07C7.82013e-05 9.77 0.0100765 9.47 0.030077 9.17C0.360077 4.11 4.53008 0 9.34008 0Z" fill="#FFAC08"/>
</g>
<defs>
<clipPath id="clip0_978_762">
<rect width="40" height="25.76" fill="white" transform="matrix(-1 0 0 1 40 0)"/>
</clipPath>
</defs>
</svg>
