<svg width="24" height="23" viewBox="0 0 24 23" fill="none" xmlns="http://www.w3.org/2000/svg">
<g id="Mask group">
<mask id="mask0_1035_782" style="mask-type:alpha" maskUnits="userSpaceOnUse" x="0" y="0" width="24" height="23">
<g id="Group">
<path id="Vector" d="M0.34375 11.25C0.34375 5.03679 5.53794 0 11.9453 0C18.3527 0 23.5469 5.03679 23.5469 11.25C23.5469 17.4632 18.3527 22.5 11.9453 22.5C5.53794 22.5 0.34375 17.4632 0.34375 11.25Z" fill="black"/>
</g>
</mask>
<g mask="url(#mask0_1035_782)">
<g id="Group_2">
<path id="Subtract" fill-rule="evenodd" clip-rule="evenodd" d="M0.348633 10.9128C5.04856 10.856 7.69066 10.5443 9.454 8.83437C11.2173 7.12448 11.5388 4.56244 11.5974 0.00494385C5.46634 0.179948 0.529117 4.96755 0.348633 10.9128ZM12.2928 0.00494385C12.3514 4.56242 12.6729 7.12448 14.4362 8.83437C16.1995 10.5443 18.8416 10.856 23.5415 10.9128C23.3611 4.96755 18.4238 0.179948 12.2928 0.00494385ZM23.5415 11.5872C18.8416 11.644 16.1995 11.9557 14.4362 13.6656C12.6729 15.3755 12.3514 17.9375 12.2928 22.495C18.4238 22.32 23.3611 17.5324 23.5415 11.5872ZM11.5974 22.495C11.5388 17.9375 11.2173 15.3755 9.454 13.6656C7.69068 11.9557 5.04856 11.644 0.348633 11.5872C0.529106 17.5324 5.46633 22.32 11.5974 22.495Z" fill="black"/>
</g>
</g>
</g>
</svg>
