<svg width="23" height="23" viewBox="0 0 23 23" fill="none" xmlns="http://www.w3.org/2000/svg">
<mask id="mask0_920_800" style="mask-type:alpha" maskUnits="userSpaceOnUse" x="0" y="0" width="23" height="23">
<path d="M0 11.25C0 5.03679 5.03679 0 11.25 0C17.4632 0 22.5 5.03679 22.5 11.25C22.5 17.4632 17.4632 22.5 11.25 22.5C5.03679 22.5 0 17.4632 0 11.25Z" fill="black"/>
</mask>
<g mask="url(#mask0_920_800)">
<path fill-rule="evenodd" clip-rule="evenodd" d="M0.00488339 10.9128C4.56238 10.856 7.12442 10.5443 8.83433 8.83438C10.5442 7.12449 10.8559 4.56245 10.9127 0.00495529C4.96751 0.17996 0.179898 4.96756 0.00488339 10.9128ZM11.5871 0.00495529C11.6439 4.56244 11.9556 7.12449 13.6655 8.83438C15.3754 10.5443 17.9375 10.856 22.495 10.9128C22.32 4.96756 17.5323 0.17996 11.5871 0.00495529ZM22.495 11.5872C17.9375 11.644 15.3754 11.9557 13.6655 13.6656C11.9557 15.3755 11.6439 17.9375 11.5871 22.495C17.5324 22.32 22.32 17.5324 22.495 11.5872ZM10.9127 22.495C10.8559 17.9375 10.5442 15.3755 8.83433 13.6656C7.12444 11.9557 4.56238 11.644 0.00488283 11.5872C0.179888 17.5324 4.9675 22.32 10.9127 22.495Z" fill="white"/>
</g>
</svg>
