<svg xmlns="http://www.w3.org/2000/svg" width="12" height="12" viewBox="0 0 12 12" fill="none" >
											<g clip-path="url(#clip0_1158_934)">
											<path d="M3.10957 11.1124C3.99304 11.5931 4.98783 11.8455 6 11.8455C9.30783 11.8455 12 9.18798 12 5.92275C12 2.65751 9.30783 0 6 0C2.69217 0 0 2.65751 0 5.92275C0 6.97167 0.28 7.99828 0.813913 8.90129L0.0504348 12L3.10957 11.1124ZM3.42783 3.15536C3.55478 3.04034 3.72 2.97854 3.89217 2.97854H4.07478C4.31652 2.97854 4.53217 3.1279 4.61391 3.35107L4.98783 4.36738C5.02261 4.46352 5.00522 4.56996 4.94087 4.65064L4.64522 5.01459C4.5287 5.15708 4.49739 5.35107 4.56522 5.52103C4.92348 6.4103 5.98783 7.03519 6.54435 7.30987C6.74609 7.40944 6.98783 7.37167 7.14783 7.21545L7.47478 6.8927C7.55304 6.81545 7.66957 6.78798 7.77565 6.8206L8.76696 7.13305C9.00522 7.20858 9.16696 7.42661 9.16696 7.67382V7.92275C9.16696 8.10472 9.09391 8.27983 8.96348 8.40858C7.99826 9.34936 6.39652 8.65923 5.35826 8.0309C4.61043 7.57768 3.95826 6.98197 3.47304 6.25923C2.29913 4.50987 3.01217 3.52961 3.42783 3.15536Z" fill="white"/>
											</g>
											<defs>
											<clipPath id="clip0_1158_934">
											<rect width="12" height="12" fill="white"/>
											</clipPath>
											</defs>
										</svg>